<svg width="60" height="60" viewBox="0 0 60 60" fill="none" xmlns="http://www.w3.org/2000/svg">
<path fill-rule="evenodd" clip-rule="evenodd" d="M3.75 52.5C3.75 52.5 0 52.5 0 48.75C0 45 3.75 33.75 22.5 33.75C41.25 33.75 45 45 45 48.75C45 52.5 41.25 52.5 41.25 52.5H3.75Z" fill="#524753"/>
<path fill-rule="evenodd" clip-rule="evenodd" d="M22.5 30C28.7132 30 33.75 24.9632 33.75 18.75C33.75 12.5368 28.7132 7.5 22.5 7.5C16.2868 7.5 11.25 12.5368 11.25 18.75C11.25 24.9632 16.2868 30 22.5 30Z" fill="#524753"/>
<path fill-rule="evenodd" clip-rule="evenodd" d="M45.5492 19.2992C46.2814 18.5669 47.4686 18.5669 48.2008 19.2992L52.5 23.5984L56.7992 19.2992C57.5314 18.5669 58.7186 18.5669 59.4508 19.2992C60.1831 20.0314 60.1831 21.2186 59.4508 21.9508L55.1516 26.25L59.4508 30.5492C60.1831 31.2814 60.1831 32.4686 59.4508 33.2008C58.7186 33.9331 57.5314 33.9331 56.7992 33.2008L52.5 28.9016L48.2008 33.2008C47.4686 33.9331 46.2814 33.9331 45.5492 33.2008C44.8169 32.4686 44.8169 31.2814 45.5492 30.5492L49.8484 26.25L45.5492 21.9508C44.8169 21.2186 44.8169 20.0314 45.5492 19.2992Z" fill="#524753"/>
</svg>
