<svg width="60" height="60" viewBox="0 0 60 60" fill="none" xmlns="http://www.w3.org/2000/svg">
<path fill-rule="evenodd" clip-rule="evenodd" d="M59.4508 19.2992C60.1831 20.0314 60.1831 21.2186 59.4508 21.9508L48.2008 33.2008C47.8492 33.5525 47.3723 33.75 46.875 33.75C46.3777 33.75 45.9008 33.5525 45.5492 33.2008L39.9242 27.5758C39.1919 26.8436 39.1919 25.6564 39.9242 24.9242C40.6564 24.1919 41.8436 24.1919 42.5758 24.9242L46.875 29.2234L56.7992 19.2992C57.5314 18.5669 58.7186 18.5669 59.4508 19.2992Z" fill="#524753"/>
<path d="M3.75 52.5C3.75 52.5 0 52.5 0 48.75C0 45 3.75 33.75 22.5 33.75C41.25 33.75 45 45 45 48.75C45 52.5 41.25 52.5 41.25 52.5H3.75Z" fill="#524753"/>
<path d="M22.5 30C28.7132 30 33.75 24.9632 33.75 18.75C33.75 12.5368 28.7132 7.5 22.5 7.5C16.2868 7.5 11.25 12.5368 11.25 18.75C11.25 24.9632 16.2868 30 22.5 30Z" fill="#524753"/>
</svg>
