<svg width="32" height="33" viewBox="0 0 32 33" fill="none" xmlns="http://www.w3.org/2000/svg">
<path d="M24.6725 8.45992C24.3274 8.45992 24.0479 8.18027 24.0479 7.83531C24.0479 7.49035 24.3274 7.21069 24.6725 7.21069" stroke="black" stroke-width="1.5" stroke-linecap="round" stroke-linejoin="round"/>
<path d="M24.6724 8.45992C25.0174 8.45992 25.297 8.18027 25.297 7.83531C25.297 7.49035 25.0174 7.21069 24.6724 7.21069" stroke="black" stroke-width="1.5" stroke-linecap="round" stroke-linejoin="round"/>
<path d="M1 7.92855C1 4.37817 3.87815 1.5 7.42856 1.5H24.5715C28.1218 1.5 31 4.37817 31 7.92855V25.0714C31 28.6217 28.1218 31.4999 24.5715 31.4999H7.42856C3.87815 31.4999 1 28.6217 1 25.0714V7.92855Z" stroke="black" stroke-width="1.5" stroke-linecap="round" stroke-linejoin="round"/>
<path d="M16 22.8708C19.5186 22.8708 22.371 20.0184 22.371 16.4997C22.371 12.9811 19.5186 10.1287 16 10.1287C12.4813 10.1287 9.62891 12.9811 9.62891 16.4997C9.62891 20.0184 12.4813 22.8708 16 22.8708Z" stroke="black" stroke-width="1.5" stroke-linecap="round" stroke-linejoin="round"/>
</svg>
