<svg width="40" height="40" viewBox="0 0 40 40" fill="none" xmlns="http://www.w3.org/2000/svg">
<path d="M2 36.4747H14.4615H26.923V35.0111C26.9009 32.9532 26.3442 30.9342 25.305 29.143C24.2657 27.3516 22.7777 25.8463 20.98 24.7677C19.1823 23.6891 17.1335 23.0723 15.0251 22.975C14.8371 22.9663 14.6492 22.9618 14.4615 22.9614C14.2738 22.9618 14.0859 22.9663 13.8979 22.975C11.7894 23.0723 9.74066 23.6891 7.94293 24.7677C6.14524 25.8463 4.65726 27.3516 3.61797 29.143C2.5787 30.9342 2.02205 32.9532 2 35.0111V36.4747Z" stroke="#524753" stroke-width="1.5" stroke-linecap="round" stroke-linejoin="round"/>
<path d="M25.5381 18.4749C29.3615 18.4749 32.4611 15.4529 32.4611 11.725C32.4611 7.99714 29.3615 4.9751 25.5381 4.9751" stroke="#524753" stroke-width="1.5" stroke-linecap="round" stroke-linejoin="round"/>
<path d="M32.4614 36.4752H37.9999V35.0113C37.9777 32.9534 37.4211 30.9343 36.3818 29.1432C35.3425 27.3517 33.8546 25.8466 32.0569 24.768C30.8949 24.0707 29.6277 23.5665 28.3076 23.2708" stroke="#524753" stroke-width="1.5" stroke-linecap="round" stroke-linejoin="round"/>
<circle cx="14.5" cy="11.5" r="6.75" stroke="#524753" stroke-width="1.5"/>
</svg>
