<svg width="44" height="55" viewBox="0 0 44 55" fill="none" xmlns="http://www.w3.org/2000/svg">
<path d="M22.4441 24.0831C28.5806 24.0831 33.5552 19.1396 33.5552 13.0416C33.5552 6.94348 28.5806 2 22.4441 2C16.3076 2 11.333 6.94348 11.333 13.0416C11.333 19.1396 16.3076 24.0831 22.4441 24.0831Z" fill="#524753" fill-opacity="0.7"/>
<path d="M22.4441 24.8331C28.9904 24.8331 34.3052 19.5583 34.3052 13.0416C34.3052 6.52484 28.9904 1.25 22.4441 1.25C15.8979 1.25 10.583 6.52484 10.583 13.0416C10.583 19.5583 15.8979 24.8331 22.4441 24.8331Z" stroke="#524753" stroke-opacity="0.7" stroke-width="1.5" stroke-linecap="round" stroke-linejoin="round"/>
<path d="M2 52.8132H22H42V50.419C41.9646 47.0526 41.0712 43.7499 39.4032 40.8199C37.7352 37.8894 35.3471 35.4272 32.4619 33.6628C29.5767 31.8983 26.2885 30.8894 22.9045 30.7302C22.6028 30.716 22.3012 30.7086 22 30.708C21.6988 30.7086 21.3972 30.716 21.0955 30.7302C17.7115 30.8894 14.4233 31.8983 11.5381 33.6628C8.65289 35.4272 6.26476 37.8894 4.59676 40.8199C2.92879 43.7499 2.03538 47.0526 2 50.419V52.8132Z" fill="#524753" fill-opacity="0.7"/>
<path d="M1.25 52.8132C1.25 53.2274 1.58579 53.5632 2 53.5632H22H42C42.4142 53.5632 42.75 53.2274 42.75 52.8132L42.75 50.419L42.75 50.4111C42.7132 46.9171 41.7859 43.4894 40.055 40.4488C38.3241 37.4079 35.8462 34.8533 32.8532 33.0229C29.8602 31.1926 26.4495 30.1462 22.9398 29.9811L22.9397 29.981C22.6269 29.9663 22.3141 29.9587 22.0015 29.958L21.9985 29.958C21.6859 29.9587 21.3731 29.9663 21.0603 29.981L21.0602 29.9811C17.5505 30.1462 14.1398 31.1926 11.1468 33.0229C8.15379 34.8533 5.67589 37.4078 3.94497 40.4488C2.21405 43.4894 1.28676 46.9171 1.25004 50.4111H1.25V50.419V52.8132ZM22 30.7078L22 30.708L22 30.7078Z" stroke="#524753" stroke-opacity="0.7" stroke-width="1.5" stroke-linecap="round" stroke-linejoin="round"/>
</svg>
