<svg width="20" height="21" viewBox="0 0 20 21" fill="none" xmlns="http://www.w3.org/2000/svg">
<g clip-path="url(#clip0_836_1876)">
<path d="M15.1583 9.11667L15.4167 9.31667L15.675 9.11667C15.85 8.975 20 5.68333 20 3.15C20 1.69167 18.875 0.5 17.5 0.5C16.6667 0.5 15.875 0.941667 15.4167 1.56667C14.975 0.966667 14.225 0.5 13.3333 0.5C11.9583 0.5 10.8333 1.69167 10.8333 3.15C10.8333 5.68333 14.9833 8.975 15.1583 9.11667ZM13.3333 1.33333C14.2583 1.33333 15 2.10833 15 2.75V3H15.8333V2.75C15.8333 2.09167 16.5583 1.33333 17.5 1.33333C18.4417 1.33333 19.1667 2.15 19.1667 3.15C19.1667 4.79167 16.6667 7.21667 15.4167 8.25C14.1667 7.20833 11.6667 4.79167 11.6667 3.15C11.6667 2.15 12.4167 1.33333 13.3333 1.33333ZM7.08333 0.5H2.08333C0.933333 0.5 0 1.43333 0 2.58333V9.66667H9.16667V2.58333C9.16667 1.43333 8.23333 0.5 7.08333 0.5ZM8.33333 8.83333H0.833333V2.58333C0.833333 1.89167 1.39167 1.33333 2.08333 1.33333H7.08333C7.775 1.33333 8.33333 1.89167 8.33333 2.58333V8.83333ZM17.9167 11.3333H12.9167C11.7667 11.3333 10.8333 12.2667 10.8333 13.4167V20.5H20V13.4167C20 12.2667 19.0667 11.3333 17.9167 11.3333ZM19.1667 19.6667H11.6667V13.4167C11.6667 12.725 12.225 12.1667 12.9167 12.1667H17.9167C18.6083 12.1667 19.1667 12.725 19.1667 13.4167V19.6667ZM7.08333 11.3333H2.08333C0.933333 11.3333 0 12.2667 0 13.4167V20.5H9.16667V13.4167C9.16667 12.2667 8.23333 11.3333 7.08333 11.3333ZM8.33333 19.6667H0.833333V13.4167C0.833333 12.725 1.39167 12.1667 2.08333 12.1667H7.08333C7.775 12.1667 8.33333 12.725 8.33333 13.4167V19.6667Z" fill="white"/>
</g>
<defs>
<clipPath id="clip0_836_1876">
<rect width="20" height="20" fill="white" transform="translate(0 0.5)"/>
</clipPath>
</defs>
</svg>
