<svg width="28" height="28" viewBox="0 0 28 28" fill="none" xmlns="http://www.w3.org/2000/svg">
<g clip-path="url(#clip0_593_957)">
<path fill-rule="evenodd" clip-rule="evenodd" d="M12 0C5.37258 0 0 5.37258 0 12C0 18.6274 5.37258 24 12 24C14.9537 24 17.6582 22.9328 19.7488 21.1631L26.293 27.7072C26.6835 28.0977 27.3167 28.0977 27.7072 27.7072C28.0977 27.3167 28.0977 26.6835 27.7072 26.293L21.1631 19.7488C22.9328 17.6582 24 14.9537 24 12C24 5.37258 18.6274 0 12 0ZM2 12C2 6.47714 6.47714 2 12 2C17.5229 2 22 6.47714 22 12C22 17.5229 17.5229 22 12 22C6.47714 22 2 17.5229 2 12Z" fill="#524753"/>
</g>
<defs>
<clipPath id="clip0_593_957">
<rect width="28" height="28" fill="white"/>
</clipPath>
</defs>
</svg>
