<svg width="35" height="36" viewBox="0 0 35 36" fill="none" xmlns="http://www.w3.org/2000/svg">
<g clip-path="url(#clip0_769_257)">
<path d="M23.1247 13.0068C25.9427 13.0068 28.6452 14.1269 30.6377 16.1207C32.6302 18.1145 33.7497 20.8186 33.7497 23.6382C33.7564 25.7309 33.1382 27.7779 31.9747 29.5167L33.7497 34.2696L27.7747 33.1939C26.3377 33.8951 24.7612 34.2628 23.1625 34.2696C21.5638 34.2763 19.9842 33.9218 18.5414 33.2329C17.0986 32.544 15.8298 31.5379 14.8295 30.2902C13.8292 29.0424 13.1232 27.5848 12.7641 26.0259C12.4051 24.4672 12.4022 22.8474 12.7557 21.2873C13.1092 19.7273 13.81 18.2671 14.8059 17.0157C15.8017 15.7643 17.067 14.754 18.5073 14.0598C19.9477 13.3657 21.526 13.0058 23.1247 13.0068Z" stroke="#524753" stroke-width="3" stroke-linecap="round" stroke-linejoin="round"/>
<path d="M24.65 6.7781C22.9665 4.63449 20.6568 3.0695 18.0426 2.30103C15.4284 1.53255 12.6397 1.59884 10.0649 2.49065C7.4901 3.38246 5.2573 5.05542 3.67733 7.27659C2.09737 9.49775 1.2489 12.1566 1.25006 14.8829C1.24231 17.4745 2.00839 20.0093 3.45005 22.1623L1.25006 28.0157L6.55005 27.0651" stroke="#524753" stroke-width="3" stroke-linecap="round" stroke-linejoin="round"/>
</g>
<defs>
<clipPath id="clip0_769_257">
<rect width="35" height="35" fill="white" transform="translate(0 0.5)"/>
</clipPath>
</defs>
</svg>
