<svg width="40" height="40" viewBox="0 0 40 40" fill="none" xmlns="http://www.w3.org/2000/svg">
<path d="M30.057 20.6609C30.0106 15.9741 33.8625 13.7262 34.0348 13.6126C31.8699 10.4337 28.4972 9.99747 27.2968 9.94783C24.4288 9.65528 21.6979 11.6445 20.2429 11.6445C18.7909 11.6445 16.5429 9.9907 14.1647 10.0328C11.0361 10.0794 8.15234 11.8603 6.54236 14.673C3.29321 20.3337 5.71117 28.7229 8.8772 33.3173C10.425 35.5629 12.2709 38.0898 14.6926 37.9973C17.0267 37.9048 17.9073 36.4812 20.7289 36.4812C23.5504 36.4812 24.3427 37.9973 26.8116 37.9499C29.3217 37.9041 30.9129 35.6614 32.448 33.4068C34.225 30.7979 34.9566 28.2717 35 28.1439C34.9453 28.1183 30.1072 26.257 30.057 20.6609Z" fill="black"/>
<path d="M25.4179 6.90741C26.7022 5.34163 27.5723 3.16593 27.3357 1C25.4823 1.07521 23.2388 2.23713 21.9082 3.80141C20.716 5.18971 19.6737 7.40001 19.953 9.52683C22.0205 9.68777 24.1292 8.47019 25.4179 6.90741Z" fill="black"/>
</svg>
