<svg width="31" height="30" viewBox="0 0 31 30" fill="none" xmlns="http://www.w3.org/2000/svg">
<path d="M10.1428 8.57141L15.5 13.9286L20.8571 8.57141" stroke="black" stroke-width="1.5" stroke-linecap="round" stroke-linejoin="round"/>
<path d="M15.5 1.07141V13.9286" stroke="black" stroke-width="1.5" stroke-linecap="round" stroke-linejoin="round"/>
<path d="M26.2143 9.64282C26.7825 9.64282 27.3277 9.86859 27.7295 10.2704C28.1312 10.6723 28.3571 11.2174 28.3571 11.7857V26.7857C28.3571 27.354 28.1312 27.8991 27.7295 28.3009C27.3277 28.7027 26.7825 28.9285 26.2143 28.9285H4.78568C4.21735 28.9285 3.67231 28.7027 3.27044 28.3009C2.86859 27.8991 2.64282 27.354 2.64282 26.7857V11.7857C2.64282 11.2174 2.86859 10.6723 3.27044 10.2704C3.67231 9.86859 4.21735 9.64282 4.78568 9.64282" stroke="black" stroke-width="1.5" stroke-linecap="round" stroke-linejoin="round"/>
<path d="M2.64282 12.3429L15.5 21.4286L28.3571 12.3429" stroke="black" stroke-width="1.5" stroke-linecap="round" stroke-linejoin="round"/>
</svg>
