<svg width="56" height="55" viewBox="0 0 56 55" fill="none" xmlns="http://www.w3.org/2000/svg">
<path fill-rule="evenodd" clip-rule="evenodd" d="M28 51.3322C28.0259 51.3285 28.1347 51.313 28.3464 51.2475C28.6034 51.1679 28.9417 51.0366 29.3554 50.8418C30.1817 50.4529 31.2333 49.8463 32.4228 49.0075C34.8 47.3311 37.6515 44.7811 40.2868 41.3335C45.5359 34.4666 49.9351 24.0381 48.0312 9.75007C47.95 9.14089 47.5177 8.60779 46.9021 8.40691C44.6645 7.67678 40.8839 6.48045 37.1508 5.46851C33.334 4.43386 29.8248 3.66667 28 3.66667V51.3322ZM17.9338 1.92381C21.666 0.912117 25.6299 0 28 0C30.3701 0 34.334 0.912117 38.0662 1.92381C41.8821 2.9582 45.7266 4.17522 47.9881 4.91316C49.8754 5.529 51.3029 7.19672 51.577 9.25408C53.6279 24.6449 48.8723 36.0486 43.1044 43.5943C40.2312 47.353 37.1086 50.1544 34.4519 52.0278C33.1245 52.9639 31.8943 53.6819 30.8495 54.1737C29.8842 54.6281 28.8515 55 28 55C27.1485 55 26.1158 54.6281 25.1505 54.1737C24.1058 53.6819 22.8755 52.9639 21.5481 52.0278C18.8914 50.1544 15.7688 47.353 12.8956 43.5943C7.12764 36.0486 2.37209 24.6449 4.42298 9.25407C4.69714 7.19672 6.12462 5.529 8.01189 4.91316C10.2734 4.17522 14.1179 2.9582 17.9338 1.92381Z" fill="#524753"/>
</svg>
